ffmpeg started on 2026-01-19 at 15:05:40
Report written to "D:\Convert\FFMetrics\reports\ssim_report-6.txt"
Log level: 32
Command line:
ffmpeg -hide_banner -nostdin -r 24000/1001 -i "F:\\Convert\\files\\[DC] Make Heroine ga Oosugiru - 07_Telegram_HEVC(188).mkv" -r 24000/1001 -i "F:\\Convert\\files\\[DC] Make Heroine ga Oosugiru - 07_Telegram.mp4" -lavfi "[0:v]settb=AVTB,setpts=PTS-STARTPTS,format=pix_fmts=yuv420p10le,fps=24000/1001,scale=1920:1080:flags=lanczos:param0=3:out_range=limited:out_color_matrix=bt709:out_chroma_loc=left,setsar=1/1,setdar=(1920/1080)*(1/1),colorspace=format=yuv420p10:range=tv:primaries=bt709:trc=bt709:space=bt709:fast=0[main];[1:v]settb=AVTB,setpts=PTS-STARTPTS,format=pix_fmts=yuv420p,fps=24000/1001,scale=1920:1080:flags=lanczos:param0=3:out_range=limited:out_color_matrix=bt709:out_chroma_loc=left,setsar=1.000,setdar=1.778,colorspace=format=yuv420p:range=tv:primaries=bt709:trc=bt709:space=bt709:fast=0[ref];[main][ref]ssim=eof_action=endall:stats_file='D\\:/Convert/FFMetrics/logs/ssim_logfile-6.txt'" -f null -
Input #0, matroska,webm, from 'F:\Convert\files\[DC] Make Heroine ga Oosugiru - 07_Telegram_HEVC(188).mkv':
  Metadata:
    COMPATIBLE_BRANDS: isomiso2avc1mp41
    MAJOR_BRAND     : isom
    MINOR_VERSION   : 512
    ENCODER         : Lavf61.7.100
  Duration: 00:24:06.79, start: -0.021000, bitrate: 970 kb/s
  Stream #0:0: Video: hevc (Main 10), yuv420p10le(tv, bt709, progressive), 1920x1080 [SAR 1:1 DAR 16:9], 23.98 fps, 23.98 tbr, 1k tbn (default)
      Metadata:
        HANDLER_NAME    : VideoHandler
        VENDOR_ID       : [0][0][0][0]
        ENCODER         : Lavc61.19.100 libx265
        BPS             : 773615
        DURATION        : 00:24:06.569708333
        NUMBER_OF_FRAMES: 34683
        NUMBER_OF_BYTES : 139886088
        _STATISTICS_WRITING_APP: mkvpropedit v94.0 ('Initiate') 64-bit
        _STATISTICS_WRITING_DATE_UTC: 2026-01-19 11:14:06
        _STATISTICS_TAGS: BPS DURATION NUMBER_OF_FRAMES NUMBER_OF_BYTES
  Stream #0:1: Audio: aac (LC), 48000 Hz, stereo, fltp (default)
      Metadata:
        HANDLER_NAME    : SoundHandler
        VENDOR_ID       : [0][0][0][0]
        ENCODER         : Lavc61.19.100 aac
        BPS             : 193194
        DURATION        : 00:24:06.784000000
        NUMBER_OF_FRAMES: 67819
        NUMBER_OF_BYTES : 34938755
        _STATISTICS_WRITING_APP: mkvpropedit v94.0 ('Initiate') 64-bit
        _STATISTICS_WRITING_DATE_UTC: 2026-01-19 11:14:06
        _STATISTICS_TAGS: BPS DURATION NUMBER_OF_FRAMES NUMBER_OF_BYTES
Input #1, mov,mp4,m4a,3gp,3g2,mj2, from 'F:\Convert\files\[DC] Make Heroine ga Oosugiru - 07_Telegram.mp4':
  Metadata:
    major_brand     : isom
    minor_version   : 512
    compatible_brands: isomiso2avc1mp41
    encoder         : Lavf60.16.100
  Duration: 00:24:06.74, start: 0.000000, bitrate: 3764 kb/s
  Stream #1:0[0x1](und): Video: h264 (High) (avc1 / 0x31637661), yuv420p(tv, bt709, progressive), 1920x1080 [SAR 1:1 DAR 16:9], 3616 kb/s, 23.98 fps, 23.98 tbr, 24k tbn (default)
      Metadata:
        handler_name    : VideoHandler
        vendor_id       : [0][0][0][0]
        encoder         : Lavc60.31.102 h264_qsv
  Stream #1:1[0x2](und): Audio: aac (HE-AACv2) (mp4a / 0x6134706D), 48000 Hz, stereo, fltp, 144 kb/s (default)
      Metadata:
        handler_name    : SoundHandler
        vendor_id       : [0][0][0][0]
Stream mapping:
  Stream #0:0 (hevc) -> settb:default
  Stream #1:0 (h264) -> settb:default
  ssim:default -> Stream #0:0 (wrapped_avframe)
  Stream #0:1 -> #0:1 (aac (native) -> pcm_s16le (native))
Output #0, null, to 'pipe:':
  Metadata:
    COMPATIBLE_BRANDS: isomiso2avc1mp41
    MAJOR_BRAND     : isom
    MINOR_VERSION   : 512
    encoder         : Lavf61.7.100
  Stream #0:0: Video: wrapped_avframe, yuv420p10le(tv, bt709, progressive), 1920x1080 [SAR 1:1 DAR 16:9], q=2-31, 200 kb/s, 23.98 fps, 23.98 tbn
      Metadata:
        encoder         : Lavc61.19.100 wrapped_avframe
  Stream #0:1: Audio: pcm_s16le, 48000 Hz, stereo, s16, 1536 kb/s (default)
      Metadata:
        HANDLER_NAME    : SoundHandler
        VENDOR_ID       : [0][0][0][0]
        _STATISTICS_TAGS: BPS DURATION NUMBER_OF_FRAMES NUMBER_OF_BYTES
        BPS             : 193194
        DURATION        : 00:24:06.784000000
        NUMBER_OF_FRAMES: 67819
        NUMBER_OF_BYTES : 34938755
        _STATISTICS_WRITING_APP: mkvpropedit v94.0 ('Initiate') 64-bit
        _STATISTICS_WRITING_DATE_UTC: 2026-01-19 11:14:06
        encoder         : Lavc61.19.100 pcm_s16le
frame=  138 fps=0.0 q=-0.0 size=N/A time=00:00:05.75 bitrate=N/A speed=10.9x    frame=  328 fps=316 q=-0.0 size=N/A time=00:00:13.68 bitrate=N/A speed=13.2x    frame=  518 fps=335 q=-0.0 size=N/A time=00:00:21.60 bitrate=N/A speed=  14x    frame=  722 fps=349 q=-0.0 size=N/A time=00:00:30.11 bitrate=N/A speed=14.5x    frame=  896 fps=347 q=-0.0 size=N/A time=00:00:37.37 bitrate=N/A speed=14.5x    frame= 1040 fps=337 q=-0.0 size=N/A time=00:00:43.37 bitrate=N/A speed=  14x    frame= 1212 fps=335 q=-0.0 size=N/A time=00:00:50.55 bitrate=N/A speed=  14x    frame= 1373 fps=332 q=-0.0 size=N/A time=00:00:57.26 bitrate=N/A speed=13.9x    frame= 1537 fps=331 q=-0.0 size=N/A time=00:01:04.10 bitrate=N/A speed=13.8x    frame= 1680 fps=325 q=-0.0 size=N/A time=00:01:10.07 bitrate=N/A speed=13.6x    frame= 1853 fps=327 q=-0.0 size=N/A time=00:01:17.28 bitrate=N/A speed=13.6x    frame= 2032 fps=328 q=-0.0 size=N/A time=00:01:24.75 bitrate=N/A speed=13.7x    frame= 2135 fps=318 q=-0.0 size=N/A time=00:01:29.04 bitrate=N/A speed=13.3x    frame= 2284 fps=316 q=-0.0 size=N/A time=00:01:35.26 bitrate=N/A speed=13.2x    frame= 2434 fps=314 q=-0.0 size=N/A time=00:01:41.51 bitrate=N/A speed=13.1x    frame= 2564 fps=311 q=-0.0 size=N/A time=00:01:46.94 bitrate=N/A speed=  13x    frame= 2740 fps=313 q=-0.0 size=N/A time=00:01:54.28 bitrate=N/A speed=  13x    frame= 2910 fps=314 q=-0.0 size=N/A time=00:02:01.37 bitrate=N/A speed=13.1x    frame= 3098 fps=316 q=-0.0 size=N/A time=00:02:09.21 bitrate=N/A speed=13.2x    frame= 3289 fps=319 q=-0.0 size=N/A time=00:02:17.17 bitrate=N/A speed=13.3x    frame= 3486 fps=322 q=-0.0 size=N/A time=00:02:25.39 bitrate=N/A speed=13.4x    frame= 3674 fps=324 q=-0.0 size=N/A time=00:02:33.23 bitrate=N/A speed=13.5x    frame= 3863 fps=326 q=-0.0 size=N/A time=00:02:41.11 bitrate=N/A speed=13.6x    frame= 4060 fps=328 q=-0.0 size=N/A time=00:02:49.33 bitrate=N/A speed=13.7x    frame= 4261 fps=330 q=-0.0 size=N/A time=00:02:57.71 bitrate=N/A speed=13.8x    frame= 4451 fps=332 q=-0.0 size=N/A time=00:03:05.64 bitrate=N/A speed=13.8x    frame= 4647 fps=334 q=-0.0 size=N/A time=00:03:13.81 bitrate=N/A speed=13.9x    frame= 4849 fps=336 q=-0.0 size=N/A time=00:03:22.24 bitrate=N/A speed=  14x    frame= 5040 fps=337 q=-0.0 size=N/A time=00:03:30.21 bitrate=N/A speed=14.1x    frame= 5236 fps=338 q=-0.0 size=N/A time=00:03:38.38 bitrate=N/A speed=14.1x    frame= 5441 fps=340 q=-0.0 size=N/A time=00:03:46.93 bitrate=N/A speed=14.2x    frame= 5633 fps=341 q=-0.0 size=N/A time=00:03:54.94 bitrate=N/A speed=14.2x    frame= 5825 fps=342 q=-0.0 size=N/A time=00:04:02.95 bitrate=N/A speed=14.3x    frame= 6016 fps=343 q=-0.0 size=N/A time=00:04:10.91 bitrate=N/A speed=14.3x    frame= 6204 fps=343 q=-0.0 size=N/A time=00:04:18.75 bitrate=N/A speed=14.3x    frame= 6393 fps=344 q=-0.0 size=N/A time=00:04:26.64 bitrate=N/A speed=14.3x    frame= 6588 fps=345 q=-0.0 size=N/A time=00:04:34.77 bitrate=N/A speed=14.4x    frame= 6786 fps=346 q=-0.0 size=N/A time=00:04:43.03 bitrate=N/A speed=14.4x    frame= 6985 fps=347 q=-0.0 size=N/A time=00:04:51.33 bitrate=N/A speed=14.5x    frame= 7180 fps=347 q=-0.0 size=N/A time=00:04:59.46 bitrate=N/A speed=14.5x    frame= 7365 fps=348 q=-0.0 size=N/A time=00:05:07.18 bitrate=N/A speed=14.5x    frame= 7544 fps=348 q=-0.0 size=N/A time=00:05:14.64 bitrate=N/A speed=14.5x    frame= 7712 fps=347 q=-0.0 size=N/A time=00:05:21.65 bitrate=N/A speed=14.5x    frame= 7898 fps=348 q=-0.0 size=N/A time=00:05:29.41 bitrate=N/A speed=14.5x    frame= 8075 fps=348 q=-0.0 size=N/A time=00:05:36.79 bitrate=N/A speed=14.5x    frame= 8273 fps=348 q=-0.0 size=N/A time=00:05:45.05 bitrate=N/A speed=14.5x    frame= 8460 fps=349 q=-0.0 size=N/A time=00:05:52.85 bitrate=N/A speed=14.5x    frame= 8648 fps=349 q=-0.0 size=N/A time=00:06:00.69 bitrate=N/A speed=14.6x    frame= 8843 fps=349 q=-0.0 size=N/A time=00:06:08.82 bitrate=N/A speed=14.6x    frame= 9029 fps=350 q=-0.0 size=N/A time=00:06:16.58 bitrate=N/A speed=14.6x    frame= 9214 fps=350 q=-0.0 size=N/A time=00:06:24.30 bitrate=N/A speed=14.6x    frame= 9409 fps=350 q=-0.0 size=N/A time=00:06:32.43 bitrate=N/A speed=14.6x    frame= 9596 fps=351 q=-0.0 size=N/A time=00:06:40.23 bitrate=N/A speed=14.6x    frame= 9790 fps=351 q=-0.0 size=N/A time=00:06:48.32 bitrate=N/A speed=14.7x    frame= 9988 fps=352 q=-0.0 size=N/A time=00:06:56.58 bitrate=N/A speed=14.7x    frame=10180 fps=352 q=-0.0 size=N/A time=00:07:04.59 bitrate=N/A speed=14.7x    frame=10370 fps=352 q=-0.0 size=N/A time=00:07:12.51 bitrate=N/A speed=14.7x    frame=10565 fps=353 q=-0.0 size=N/A time=00:07:20.64 bitrate=N/A speed=14.7x    frame=10754 fps=353 q=-0.0 size=N/A time=00:07:28.53 bitrate=N/A speed=14.7x    frame=10948 fps=353 q=-0.0 size=N/A time=00:07:36.62 bitrate=N/A speed=14.7x    frame=11136 fps=354 q=-0.0 size=N/A time=00:07:44.46 bitrate=N/A speed=14.7x    frame=11320 fps=354 q=-0.0 size=N/A time=00:07:52.13 bitrate=N/A speed=14.8x    frame=11516 fps=354 q=-0.0 size=N/A time=00:08:00.31 bitrate=N/A speed=14.8x    frame=11701 fps=354 q=-0.0 size=N/A time=00:08:08.02 bitrate=N/A speed=14.8x    frame=11892 fps=354 q=-0.0 size=N/A time=00:08:15.99 bitrate=N/A speed=14.8x    frame=12086 fps=355 q=-0.0 size=N/A time=00:08:24.08 bitrate=N/A speed=14.8x    frame=12282 fps=355 q=-0.0 size=N/A time=00:08:32.26 bitrate=N/A speed=14.8x    frame=12480 fps=356 q=-0.0 size=N/A time=00:08:40.52 bitrate=N/A speed=14.8x    frame=12664 fps=356 q=-0.0 size=N/A time=00:08:48.19 bitrate=N/A speed=14.8x    frame=12857 fps=356 q=-0.0 size=N/A time=00:08:56.24 bitrate=N/A speed=14.8x    frame=13043 fps=356 q=-0.0 size=N/A time=00:09:04.00 bitrate=N/A speed=14.8x    frame=13233 fps=356 q=-0.0 size=N/A time=00:09:11.92 bitrate=N/A speed=14.9x    frame=13418 fps=356 q=-0.0 size=N/A time=00:09:19.64 bitrate=N/A speed=14.9x    frame=13612 fps=356 q=-0.0 size=N/A time=00:09:27.73 bitrate=N/A speed=14.9x    frame=13806 fps=357 q=-0.0 size=N/A time=00:09:35.82 bitrate=N/A speed=14.9x    frame=13995 fps=357 q=-0.0 size=N/A time=00:09:43.70 bitrate=N/A speed=14.9x    frame=14168 fps=357 q=-0.0 size=N/A time=00:09:50.92 bitrate=N/A speed=14.9x    frame=14362 fps=357 q=-0.0 size=N/A time=00:09:59.01 bitrate=N/A speed=14.9x    frame=14547 fps=357 q=-0.0 size=N/A time=00:10:06.73 bitrate=N/A speed=14.9x    frame=14733 fps=357 q=-0.0 size=N/A time=00:10:14.48 bitrate=N/A speed=14.9x    frame=14924 fps=357 q=-0.0 size=N/A time=00:10:22.45 bitrate=N/A speed=14.9x    frame=15104 fps=357 q=-0.0 size=N/A time=00:10:29.96 bitrate=N/A speed=14.9x    frame=15274 fps=357 q=-0.0 size=N/A time=00:10:37.05 bitrate=N/A speed=14.9x    frame=15456 fps=357 q=-0.0 size=N/A time=00:10:44.64 bitrate=N/A speed=14.9x    frame=15646 fps=357 q=-0.0 size=N/A time=00:10:52.56 bitrate=N/A speed=14.9x    frame=15833 fps=357 q=-0.0 size=N/A time=00:11:00.36 bitrate=N/A speed=14.9x    frame=16034 fps=357 q=-0.0 size=N/A time=00:11:08.75 bitrate=N/A speed=14.9x    frame=16222 fps=357 q=-0.0 size=N/A time=00:11:16.59 bitrate=N/A speed=14.9x    frame=16416 fps=357 q=-0.0 size=N/A time=00:11:24.68 bitrate=N/A speed=14.9x    frame=16598 fps=357 q=-0.0 size=N/A time=00:11:32.27 bitrate=N/A speed=14.9x    frame=16783 fps=357 q=-0.0 size=N/A time=00:11:39.99 bitrate=N/A speed=14.9x    frame=16976 fps=358 q=-0.0 size=N/A time=00:11:48.04 bitrate=N/A speed=14.9x    frame=17170 fps=358 q=-0.0 size=N/A time=00:11:56.13 bitrate=N/A speed=14.9x    frame=17363 fps=358 q=-0.0 size=N/A time=00:12:04.18 bitrate=N/A speed=14.9x    frame=17541 fps=358 q=-0.0 size=N/A time=00:12:11.60 bitrate=N/A speed=14.9x    frame=17726 fps=358 q=-0.0 size=N/A time=00:12:19.32 bitrate=N/A speed=14.9x    frame=17915 fps=358 q=-0.0 size=N/A time=00:12:27.20 bitrate=N/A speed=14.9x    frame=18098 fps=358 q=-0.0 size=N/A time=00:12:34.83 bitrate=N/A speed=14.9x    frame=18282 fps=358 q=-0.0 size=N/A time=00:12:42.51 bitrate=N/A speed=14.9x    frame=18462 fps=358 q=-0.0 size=N/A time=00:12:50.01 bitrate=N/A speed=14.9x    frame=18645 fps=358 q=-0.0 size=N/A time=00:12:57.65 bitrate=N/A speed=14.9x    frame=18840 fps=358 q=-0.0 size=N/A time=00:13:05.78 bitrate=N/A speed=14.9x    frame=19021 fps=358 q=-0.0 size=N/A time=00:13:13.33 bitrate=N/A speed=14.9x    frame=19218 fps=358 q=-0.0 size=N/A time=00:13:21.55 bitrate=N/A speed=14.9x    frame=19417 fps=358 q=-0.0 size=N/A time=00:13:29.85 bitrate=N/A speed=14.9x    frame=19616 fps=358 q=-0.0 size=N/A time=00:13:38.15 bitrate=N/A speed=14.9x    frame=19804 fps=359 q=-0.0 size=N/A time=00:13:45.99 bitrate=N/A speed=  15x    frame=20004 fps=359 q=-0.0 size=N/A time=00:13:54.33 bitrate=N/A speed=  15x    frame=20205 fps=359 q=-0.0 size=N/A time=00:14:02.71 bitrate=N/A speed=  15x    frame=20400 fps=359 q=-0.0 size=N/A time=00:14:10.85 bitrate=N/A speed=  15x    frame=20582 fps=359 q=-0.0 size=N/A time=00:14:18.44 bitrate=N/A speed=  15x    frame=20763 fps=359 q=-0.0 size=N/A time=00:14:25.99 bitrate=N/A speed=  15x    frame=20956 fps=359 q=-0.0 size=N/A time=00:14:34.03 bitrate=N/A speed=  15x    frame=21157 fps=359 q=-0.0 size=N/A time=00:14:42.42 bitrate=N/A speed=  15x    frame=21353 fps=360 q=-0.0 size=N/A time=00:14:50.59 bitrate=N/A speed=  15x    frame=21542 fps=360 q=-0.0 size=N/A time=00:14:58.48 bitrate=N/A speed=  15x    frame=21731 fps=360 q=-0.0 size=N/A time=00:15:06.36 bitrate=N/A speed=  15x    frame=21928 fps=360 q=-0.0 size=N/A time=00:15:14.58 bitrate=N/A speed=  15x    frame=22120 fps=360 q=-0.0 size=N/A time=00:15:22.58 bitrate=N/A speed=  15x    frame=22319 fps=360 q=-0.0 size=N/A time=00:15:30.88 bitrate=N/A speed=  15x    frame=22507 fps=360 q=-0.0 size=N/A time=00:15:38.72 bitrate=N/A speed=  15x    frame=22706 fps=361 q=-0.0 size=N/A time=00:15:47.02 bitrate=N/A speed=  15x    frame=22889 fps=361 q=-0.0 size=N/A time=00:15:54.66 bitrate=N/A speed=  15x    frame=23089 fps=361 q=-0.0 size=N/A time=00:16:03.00 bitrate=N/A speed=  15x    frame=23273 fps=361 q=-0.0 size=N/A time=00:16:10.67 bitrate=N/A speed=  15x    frame=23464 fps=361 q=-0.0 size=N/A time=00:16:18.64 bitrate=N/A speed=  15x    frame=23666 fps=361 q=-0.0 size=N/A time=00:16:27.06 bitrate=N/A speed=15.1x    frame=23859 fps=361 q=-0.0 size=N/A time=00:16:35.11 bitrate=N/A speed=15.1x    frame=24047 fps=361 q=-0.0 size=N/A time=00:16:42.96 bitrate=N/A speed=15.1x    frame=24248 fps=361 q=-0.0 size=N/A time=00:16:51.34 bitrate=N/A speed=15.1x    frame=24447 fps=361 q=-0.0 size=N/A time=00:16:59.64 bitrate=N/A speed=15.1x    frame=24642 fps=362 q=-0.0 size=N/A time=00:17:07.77 bitrate=N/A speed=15.1x    frame=24833 fps=362 q=-0.0 size=N/A time=00:17:15.74 bitrate=N/A speed=15.1x    frame=25026 fps=362 q=-0.0 size=N/A time=00:17:23.79 bitrate=N/A speed=15.1x    frame=25221 fps=362 q=-0.0 size=N/A time=00:17:31.92 bitrate=N/A speed=15.1x    frame=25406 fps=362 q=-0.0 size=N/A time=00:17:39.64 bitrate=N/A speed=15.1x    frame=25611 fps=362 q=-0.0 size=N/A time=00:17:48.19 bitrate=N/A speed=15.1x    frame=25807 fps=362 q=-0.0 size=N/A time=00:17:56.36 bitrate=N/A speed=15.1x    frame=26000 fps=362 q=-0.0 size=N/A time=00:18:04.41 bitrate=N/A speed=15.1x    frame=26186 fps=362 q=-0.0 size=N/A time=00:18:12.17 bitrate=N/A speed=15.1x    frame=26387 fps=362 q=-0.0 size=N/A time=00:18:20.55 bitrate=N/A speed=15.1x    frame=26587 fps=363 q=-0.0 size=N/A time=00:18:28.89 bitrate=N/A speed=15.1x    frame=26777 fps=363 q=-0.0 size=N/A time=00:18:36.82 bitrate=N/A speed=15.1x    frame=26960 fps=363 q=-0.0 size=N/A time=00:18:44.45 bitrate=N/A speed=15.1x    frame=27136 fps=362 q=-0.0 size=N/A time=00:18:51.79 bitrate=N/A speed=15.1x    frame=27316 fps=362 q=-0.0 size=N/A time=00:18:59.30 bitrate=N/A speed=15.1x    frame=27512 fps=362 q=-0.0 size=N/A time=00:19:07.47 bitrate=N/A speed=15.1x    frame=27699 fps=362 q=-0.0 size=N/A time=00:19:15.27 bitrate=N/A speed=15.1x    frame=27890 fps=363 q=-0.0 size=N/A time=00:19:23.24 bitrate=N/A speed=15.1x    frame=28086 fps=363 q=-0.0 size=N/A time=00:19:31.42 bitrate=N/A speed=15.1x    frame=28277 fps=363 q=-0.0 size=N/A time=00:19:39.38 bitrate=N/A speed=15.1x    frame=28466 fps=363 q=-0.0 size=N/A time=00:19:47.26 bitrate=N/A speed=15.1x    frame=28651 fps=363 q=-0.0 size=N/A time=00:19:54.98 bitrate=N/A speed=15.1x    frame=28822 fps=363 q=-0.0 size=N/A time=00:20:02.11 bitrate=N/A speed=15.1x    frame=28997 fps=362 q=-0.0 size=N/A time=00:20:09.41 bitrate=N/A speed=15.1x    frame=29175 fps=362 q=-0.0 size=N/A time=00:20:16.84 bitrate=N/A speed=15.1x    frame=29354 fps=362 q=-0.0 size=N/A time=00:20:24.30 bitrate=N/A speed=15.1x    frame=29530 fps=362 q=-0.0 size=N/A time=00:20:31.64 bitrate=N/A speed=15.1x    frame=29712 fps=362 q=-0.0 size=N/A time=00:20:39.23 bitrate=N/A speed=15.1x    frame=29892 fps=362 q=-0.0 size=N/A time=00:20:46.74 bitrate=N/A speed=15.1x    frame=30052 fps=362 q=-0.0 size=N/A time=00:20:53.41 bitrate=N/A speed=15.1x    frame=30243 fps=362 q=-0.0 size=N/A time=00:21:01.38 bitrate=N/A speed=15.1x    frame=30427 fps=362 q=-0.0 size=N/A time=00:21:09.05 bitrate=N/A speed=15.1x    frame=30622 fps=362 q=-0.0 size=N/A time=00:21:17.19 bitrate=N/A speed=15.1x    frame=30815 fps=362 q=-0.0 size=N/A time=00:21:25.24 bitrate=N/A speed=15.1x    frame=31007 fps=362 q=-0.0 size=N/A time=00:21:33.25 bitrate=N/A speed=15.1x    frame=31197 fps=362 q=-0.0 size=N/A time=00:21:41.17 bitrate=N/A speed=15.1x    frame=31385 fps=362 q=-0.0 size=N/A time=00:21:49.01 bitrate=N/A speed=15.1x    frame=31573 fps=362 q=-0.0 size=N/A time=00:21:56.85 bitrate=N/A speed=15.1x    frame=31765 fps=362 q=-0.0 size=N/A time=00:22:04.86 bitrate=N/A speed=15.1x    frame=31939 fps=362 q=-0.0 size=N/A time=00:22:12.12 bitrate=N/A speed=15.1x    frame=32125 fps=362 q=-0.0 size=N/A time=00:22:19.88 bitrate=N/A speed=15.1x    frame=32326 fps=362 q=-0.0 size=N/A time=00:22:28.26 bitrate=N/A speed=15.1x    frame=32511 fps=362 q=-0.0 size=N/A time=00:22:35.97 bitrate=N/A speed=15.1x    frame=32672 fps=362 q=-0.0 size=N/A time=00:22:42.69 bitrate=N/A speed=15.1x    frame=32832 fps=361 q=-0.0 size=N/A time=00:22:49.36 bitrate=N/A speed=15.1x    frame=32999 fps=361 q=-0.0 size=N/A time=00:22:56.33 bitrate=N/A speed=15.1x    frame=33185 fps=361 q=-0.0 size=N/A time=00:23:04.09 bitrate=N/A speed=15.1x    frame=33363 fps=361 q=-0.0 size=N/A time=00:23:11.51 bitrate=N/A speed=15.1x    frame=33521 fps=361 q=-0.0 size=N/A time=00:23:18.10 bitrate=N/A speed=  15x    frame=33676 fps=360 q=-0.0 size=N/A time=00:23:24.56 bitrate=N/A speed=  15x    frame=33806 fps=360 q=-0.0 size=N/A time=00:23:29.99 bitrate=N/A speed=  15x    frame=33929 fps=359 q=-0.0 size=N/A time=00:23:35.12 bitrate=N/A speed=  15x    frame=34090 fps=359 q=-0.0 size=N/A time=00:23:41.83 bitrate=N/A speed=  15x    frame=34250 fps=359 q=-0.0 size=N/A time=00:23:48.51 bitrate=N/A speed=  15x    frame=34385 fps=358 q=-0.0 size=N/A time=00:23:54.14 bitrate=N/A speed=14.9x    frame=34534 fps=358 q=-0.0 size=N/A time=00:24:00.35 bitrate=N/A speed=14.9x    [Parsed_ssim_16 @ 0000029456be1d40] SSIM Y:0.994199 (22.364736) U:0.994000 (22.218395) V:0.993604 (21.940902) All:0.994066 (22.266841)
[out#0/null @ 00000294496efe80] video:14903KiB audio:271276KiB subtitle:0KiB other streams:0KiB global headers:0KiB muxing overhead: unknown
frame=34683 fps=358 q=-0.0 Lsize=N/A time=00:24:06.57 bitrate=N/A speed=14.9x    
